<?xml version="1.0" encoding="utf-8"?>
<!-- Generator: Adobe Illustrator 23.0.1, SVG Export Plug-In . SVG Version: 6.00 Build 0)  -->
<svg version="1.1" id="Layer_1" xmlns="http://www.w3.org/2000/svg" xmlns:xlink="http://www.w3.org/1999/xlink" x="0px" y="0px"
	 viewBox="0 0 200 200" style="enable-background:new 0 0 200 200;" xml:space="preserve">
<style type="text/css">
	.st0{fill:#FFFFFF;}
</style>
<g>
	<path class="st0" d="M15,104.8c4.9-4.7,9.8-9.4,14.7-14.2c3.8-3.7,7.4-7.6,11.5-11.7c12.6,11.9,24.9,23.6,37.6,35.6
		c26.6-27.3,53.1-54.4,79.9-81.8c8.8,8.8,17.6,17.5,26.4,26.1c0,0.2,0,0.5,0,0.7c-1,0.8-2,1.5-2.9,2.4
		C148.5,96.1,115,130.2,81.4,164.4c-0.8,0.8-1.4,1.8-2.3,2.9c-1.5-1.4-2.5-2.2-3.4-3.1c-19.6-19-39.1-38-58.7-56.9
		c-0.7-0.6-1.4-1.2-2.1-1.8C15,105.3,15,105.1,15,104.8z"/>
</g>
</svg>
