<?xml version="1.0" encoding="utf-8"?>
<!-- Generator: Adobe Illustrator 23.0.1, SVG Export Plug-In . SVG Version: 6.00 Build 0)  -->
<svg version="1.1" id="Layer_1" xmlns="http://www.w3.org/2000/svg" xmlns:xlink="http://www.w3.org/1999/xlink" x="0px" y="0px"
	 viewBox="0 0 240 191" style="enable-background:new 0 0 240 191;" xml:space="preserve">
<g>
	<path d="M0,101.91c6.91-6.68,13.87-13.31,20.71-20.06c5.33-5.26,10.5-10.67,16.23-16.51c17.72,16.77,35.18,33.28,53.07,50.21
		c37.6-38.53,75-76.85,112.77-115.55c12.49,12.39,24.85,24.65,37.22,36.91c0,0.33,0,0.67,0,1c-1.38,1.13-2.87,2.14-4.11,3.41
		c-47.39,48.24-94.77,96.49-142.12,144.77c-1.15,1.17-2.01,2.61-3.18,4.15c-2.13-1.94-3.48-3.12-4.77-4.37
		c-27.62-26.79-55.23-53.58-82.86-80.36c-0.94-0.91-1.98-1.74-2.97-2.6C0,102.58,0,102.25,0,101.91z"/>
</g>
</svg>
